<svg width="210mm" height="297mm" version="1.1" viewBox="0 0 210 297" xmlns="http://www.w3.org/2000/svg"><g transform="matrix(.265 0 0 .265 -3.45 -3.88)"><path d="m56.3 39.4-0.9-10.7c0-0.1-0.1-0.2-0.2-0.3-0.1 0-0.2 0-0.3 0.1l-12.4 10.8c-0.1 0.1-0.1 0.2-0.1 0.3l7.7 33.4c0 0.1 0.1 0.2 0.2 0.2h0.1c0.1 0 0.2 0 0.2-0.1l3.3-3.2c0.1-0.1 0.1-0.2 0.1-0.3s-0.1-0.2-0.1-0.2c-0.3-0.2-0.5-0.5-0.5-0.9l-0.1-25.9c0.3-0.4 1.9-2 2.9-3 0 0 0.1-0.1 0.1-0.2z"/><path d="m38.8 17.4c-0.1-0.1-0.2 0-0.3 0-0.1 0.1-0.1 0.2-0.1 0.3l3.5 18.8c0 0.1 0.1 0.2 0.2 0.2h0.1c0.1 0 0.1 0 0.2-0.1l1.5-1.3c3-2.6 9.4-8.1 10.8-9.6 0.1-0.1 0.1-0.2 0.1-0.3s-0.1-0.2-0.2-0.2z"/><path d="m24.2 33c0 0.1 0.1 0.2 0.2 0.2l15 4.3h0.1c0.1 0 0.2 0 0.2-0.1 0.1-0.1 0.1-0.2 0.1-0.3l-3.5-18.8c0-0.1-0.1-0.2-0.2-0.2s-0.2 0-0.3 0.1l-11.6 14.5c0 0.1-0.1 0.2 0 0.3z"/><path d="m16.5 41.2c-0.1 0.1-0.1 0.1-0.1 0.2l-1.3 9.6c0 0.1 0 0.2 0.1 0.3s0.1 0.1 0.2 0.1h0.1c2.4-0.4 7.2-1.4 12.2-2.6 0.1 0 0.2-0.1 0.2-0.2v-0.3l-2.8-6c0-0.1-0.1-0.2-0.2-0.2l-8.1-1.1c-0.2 0.1-0.3 0.1-0.3 0.2z"/><path d="m78.5 43.2c0.1-0.1 0.1-0.1 0.1-0.2s0-0.2-0.1-0.2l-9.9-10.4c-0.1-0.1-0.3-0.1-0.4 0l-12 9.9c-0.1 0.1-0.1 0.1-0.1 0.2s0 0.2 0.1 0.2l10.5 8.5c0.1 0 0.1 0.1 0.2 0.1s0.1 0 0.2-0.1c1.3-0.9 4.9-3.4 10.5-7.5z"/><path d="m29.3 68.2c0.1 0.1 0.1 0.1 0.2 0.1h0.1s6.2-1.6 6.3-1.6 0.2-0.1 0.2-0.2v-0.3l-7.1-15.3c-0.1-0.1-0.2-0.2-0.4-0.2-2.5 0.6-8.5 1.9-12.2 2.6-0.1 0-0.2 0.1-0.2 0.2s0 0.2 0.1 0.3z"/><path d="m55.6 68.1 5.9 3.6h0.2 0.1c0.1 0 0.2-0.1 0.2-0.2 0.7-3 2.2-10.2 3.7-18.3 0-0.1 0-0.2-0.1-0.3l-9.7-7.8c-0.1-0.1-0.2-0.1-0.3 0s-0.2 0.2-0.2 0.3l0.1 22.5c-0.1 0 0 0.1 0.1 0.2z"/><path d="m40.7 70.8 6.9 2.7h0.1c0.1 0 0.1 0 0.2-0.1s0.1-0.2 0.1-0.3l-7.6-33.1c0-0.1-0.1-0.2-0.2-0.2l-15.5-4.4c-0.1 0-0.2 0-0.3 0.1s-0.1 0.2 0 0.3l16.2 34.7c-0.1 0.2 0 0.3 0.1 0.3z"/><path d="m64.8 69.8c0.1 0 0.2 0 0.2-0.1l4.4-4 0.1-0.1 7.9-18.4c0.1-0.1 0-0.3-0.1-0.4s-0.3-0.1-0.4 0c-5.2 3.8-8 5.7-9.1 6.4-0.1 0-0.1 0.1-0.1 0.2-0.6 3.1-2 10.8-3.2 16 0 0.1 0 0.3 0.1 0.3 0.1 0.1 0.2 0.1 0.2 0.1z"/></g></svg>
