<svg xmlns="http://www.w3.org/2000/svg" xmlns:xlink="http://www.w3.org/1999/xlink" version="1.1" x="0px" y="0px" viewBox="0 0 91 113.75" style="enable-background:new 0 0 91 91;" xml:space="preserve"><g><path d="M56.3,39.4l-0.9-10.7c0-0.1-0.1-0.2-0.2-0.3c-0.1,0-0.2,0-0.3,0.1L42.5,39.3c-0.1,0.1-0.1,0.2-0.1,0.3L50.1,73   c0,0.1,0.1,0.2,0.2,0.2c0,0,0.1,0,0.1,0c0.1,0,0.2,0,0.2-0.1l3.3-3.2c0.1-0.1,0.1-0.2,0.1-0.3c0-0.1-0.1-0.2-0.1-0.2   c-0.3-0.2-0.5-0.5-0.5-0.9l-0.1-25.9c0.3-0.4,1.9-2,2.9-3C56.2,39.6,56.3,39.5,56.3,39.4z"/><path d="M38.8,17.4c-0.1-0.1-0.2,0-0.3,0c-0.1,0.1-0.1,0.2-0.1,0.3l3.5,18.8c0,0.1,0.1,0.2,0.2,0.2c0,0,0.1,0,0.1,0   c0.1,0,0.1,0,0.2-0.1l1.5-1.3c3-2.6,9.4-8.1,10.8-9.6c0.1-0.1,0.1-0.2,0.1-0.3s-0.1-0.2-0.2-0.2L38.8,17.4z"/><path d="M24.2,33c0,0.1,0.1,0.2,0.2,0.2l15,4.3c0,0,0.1,0,0.1,0c0.1,0,0.2,0,0.2-0.1c0.1-0.1,0.1-0.2,0.1-0.3l-3.5-18.8   c0-0.1-0.1-0.2-0.2-0.2c-0.1,0-0.2,0-0.3,0.1L24.2,32.7C24.2,32.8,24.1,32.9,24.2,33z"/><path d="M16.5,41.2c-0.1,0.1-0.1,0.1-0.1,0.2L15.1,51c0,0.1,0,0.2,0.1,0.3c0.1,0.1,0.1,0.1,0.2,0.1c0,0,0,0,0.1,0   c2.4-0.4,7.2-1.4,12.2-2.6c0.1,0,0.2-0.1,0.2-0.2c0-0.1,0-0.2,0-0.3l-2.8-6c0-0.1-0.1-0.2-0.2-0.2l-8.1-1.1   C16.6,41.1,16.5,41.1,16.5,41.2z"/><path d="M78.5,43.2c0.1-0.1,0.1-0.1,0.1-0.2c0-0.1,0-0.2-0.1-0.2l-9.9-10.4c-0.1-0.1-0.3-0.1-0.4,0l-12,9.9   c-0.1,0.1-0.1,0.1-0.1,0.2c0,0.1,0,0.2,0.1,0.2l10.5,8.5c0.1,0,0.1,0.1,0.2,0.1c0.1,0,0.1,0,0.2-0.1c1.3-0.9,4.9-3.4,10.5-7.5   L78.5,43.2z"/><path d="M29.3,68.2c0.1,0.1,0.1,0.1,0.2,0.1c0,0,0.1,0,0.1,0c0,0,6.2-1.6,6.3-1.6c0.1,0,0.2-0.1,0.2-0.2c0-0.1,0-0.2,0-0.3L29,50.9   c-0.1-0.1-0.2-0.2-0.4-0.2c-2.5,0.6-8.5,1.9-12.2,2.6c-0.1,0-0.2,0.1-0.2,0.2c0,0.1,0,0.2,0.1,0.3L29.3,68.2z"/><path d="M55.6,68.1l5.9,3.6c0,0,0.1,0,0.2,0c0,0,0.1,0,0.1,0c0.1,0,0.2-0.1,0.2-0.2c0.7-3,2.2-10.2,3.7-18.3c0-0.1,0-0.2-0.1-0.3   l-9.7-7.8c-0.1-0.1-0.2-0.1-0.3,0c-0.1,0.1-0.2,0.2-0.2,0.3l0.1,22.5C55.4,67.9,55.5,68,55.6,68.1z"/><path d="M40.7,70.8l6.9,2.7c0,0,0.1,0,0.1,0c0.1,0,0.1,0,0.2-0.1c0.1-0.1,0.1-0.2,0.1-0.3l-7.6-33.1c0-0.1-0.1-0.2-0.2-0.2   l-15.5-4.4c-0.1,0-0.2,0-0.3,0.1s-0.1,0.2,0,0.3l16.2,34.7C40.5,70.7,40.6,70.8,40.7,70.8z"/><path d="M64.8,69.8c0.1,0,0.2,0,0.2-0.1l4.4-4c0,0,0.1-0.1,0.1-0.1l7.9-18.4c0.1-0.1,0-0.3-0.1-0.4c-0.1-0.1-0.3-0.1-0.4,0   c-5.2,3.8-8,5.7-9.1,6.4c-0.1,0-0.1,0.1-0.1,0.2c-0.6,3.1-2,10.8-3.2,16c0,0.1,0,0.3,0.1,0.3C64.7,69.8,64.8,69.8,64.8,69.8z"/></g><text x="0" y="106" fill="#000000" font-size="5px" font-weight="bold" font-family="'Helvetica Neue', Helvetica, Arial-Unicode, Arial, Sans-serif">Created by BomSymbols</text><text x="0" y="111" fill="#000000" font-size="5px" font-weight="bold" font-family="'Helvetica Neue', Helvetica, Arial-Unicode, Arial, Sans-serif">from the Noun Project</text></svg>