<svg width="210mm" height="297mm" version="1.1" viewBox="0 0 210 297" xmlns="http://www.w3.org/2000/svg"><g transform="matrix(.28 0 0 .28 -45 -86)" aria-label="🌾"><path d="m188 323q2.8 2.1 5 4.2 2.2 2.1 3.8 4.2 1.7 2.1 2.9 4.2 1.2 2.1 2.1 4.5 0.9 2.3 1.5 4.8 0.64 2.5 1.2 5.2 0.02 0.059 0.02 0.16 0 0.2-0.098 0.37-0.078 0.2-0.23 0.33-0.14 0.16-0.33 0.25-0.18 0.098-0.37 0.098-0.37 0-0.64-0.23-0.27-0.21-0.31-0.59-0.49-2.6-1.1-5t-1.5-4.6q-0.86-2.2-2-4.2-1.2-2.1-2.8-4.1-1.6-2-3.7-4-2.1-2-4.8-4-0.2-0.16-0.29-0.37-0.098-0.21-0.098-0.45 0-0.35 0.2-0.62 0.29-0.37 0.78-0.37 0.33 0 0.61 0.18zm-20 1.4q0.68-0.43 1.3-0.62 0.62-0.21 1.1-0.21 0.94 0 1.3 0.61 0.18 0.27 0.18 0.59 0 0.57-0.51 1.2-0.49 0.66-1.5 1.3-0.82 0.53-1.5 0.72-0.64 0.18-1.2 0.18-0.33 0-0.59-0.039-0.23-0.059-0.41-0.12-0.21-0.078-0.35-0.18-0.02-0.02-0.02-0.078v-0.21q0-0.21 0.059-0.57t0.27-0.76q0.21-0.43 0.62-0.9t1.1-0.94zm6-5.2q1.8 0.31 2.7 0.86 0.92 0.55 0.92 1.2 0 0.14-0.02 0.2-0.098 0.57-0.82 1-0.72 0.43-2 0.43-0.33 0-0.68-0.02-0.33-0.039-0.72-0.12-1.4-0.25-2.2-0.68-0.84-0.43-1.3-0.86-0.53-0.51-0.74-1 0.27-0.31 0.72-0.57 0.39-0.21 1-0.39 0.62-0.2 1.6-0.2 0.35 0 0.74 0.039 0.41 0.02 0.86 0.098zm12 3.2q-0.45 0.64-1.4 0.64-0.66 0-1.5-0.31-0.86-0.33-1.9-1-1-0.66-1.6-1.3-0.59-0.66-0.9-1.2-0.29-0.57-0.39-1-0.078-0.47-0.078-0.72v-0.2q0-0.039 0.02-0.078 0.2-0.12 0.43-0.2 0.21-0.078 0.51-0.14 0.31-0.059 0.72-0.059 0.68 0 1.6 0.27 0.92 0.25 2.1 1 1.3 0.88 2 1.8 0.64 0.92 0.64 1.7 0 0.47-0.23 0.82zm8.2 2.8q-0.27 0.21-0.62 0.21-0.62 0-1.5-0.61-0.86-0.62-1.8-1.9-0.53-0.68-0.88-1.3-0.33-0.61-0.53-1.1-0.18-0.51-0.25-0.92-0.059-0.43-0.059-0.74 0-0.21 0.02-0.39 0.02-0.18 0.059-0.29 0.039-0.14 0.078-0.23h0.078q0.039 0 0.078 0 0.039-0.02 0.12-0.02 0.23 0 0.64 0.078 0.41 0.078 0.94 0.35 0.53 0.27 1.2 0.8 0.64 0.53 1.3 1.4 0.82 1 1.2 1.9 0.37 0.9 0.37 1.6 0 0.72-0.41 1.1zm-4.3 5.2q-0.33 0.55-1.1 0.55-0.57 0-1.3-0.29t-1.6-0.9q-0.94-0.62-1.5-1.2-0.53-0.62-0.8-1.1-0.27-0.53-0.35-0.92-0.059-0.39-0.059-0.59v-0.16q0.14-0.059 0.33-0.14 0.16-0.059 0.39-0.098 0.23-0.059 0.57-0.059 0.57 0 1.4 0.23 0.82 0.23 1.9 0.94 1.2 0.82 1.8 1.7 0.59 0.82 0.59 1.5 0 0.35-0.18 0.64zm10 2.2q-0.16 0.059-0.29 0.059-0.68 0-1.5-1-0.8-1-1.5-2.9-0.37-1-0.51-1.9-0.14-0.82-0.14-1.5 0-0.62 0.098-1.1t0.21-0.76q0.14-0.35 0.33-0.59 0.59 0.16 1.2 0.66 0.53 0.45 1.2 1.3 0.64 0.88 1.2 2.5 0.31 0.88 0.45 1.7 0.14 0.76 0.14 1.4 0 0.88-0.25 1.4-0.23 0.55-0.66 0.7zm-3.6 4.9q-0.31 0.64-1.4 0.64-0.66 0-1.6-0.27-0.92-0.29-2.1-0.88-1.5-0.76-2.3-1.5-0.8-0.76-1.2-1.4-0.45-0.72-0.53-1.4 0.18-0.12 0.41-0.2 0.21-0.078 0.51-0.14 0.31-0.059 0.76-0.059 0.68 0 1.7 0.23 1 0.23 2.3 0.92 1.7 0.92 2.6 1.9 0.86 0.98 0.86 1.7 0 0.25-0.078 0.43zm9.2-1q0.078 0.45 0.098 0.84 0.039 0.39 0.039 0.76 0 1.4-0.41 2.2-0.39 0.8-0.98 0.9-0.059 0.02-0.18 0.02-0.72 0-1.4-1.1-0.64-1.1-0.92-3-0.078-0.49-0.12-0.9-0.02-0.43-0.02-0.82 0-1 0.18-1.7 0.2-0.68 0.41-1.1 0.25-0.51 0.61-0.78 0.59 0.23 1.1 0.82 0.45 0.51 0.88 1.4 0.45 0.92 0.68 2.5zm-9.3 4.1q1.8 0.94 2.7 2 0.88 1 0.88 1.8 0 0.25-0.078 0.43-0.29 0.61-1.3 0.61-0.68 0-1.7-0.29-0.96-0.31-2.2-0.96-1.5-0.82-2.3-1.6-0.82-0.78-1.2-1.4-0.47-0.74-0.53-1.4 0.16-0.098 0.39-0.18 0.2-0.078 0.49-0.14 0.31-0.059 0.72-0.059 0.7 0 1.7 0.27 1 0.25 2.4 1z" style=""/></g></svg>
